<?xml version="1.0" encoding="UTF-8" standalone="no"?>
<svg
   width="18px"
   height="18px"
   viewBox="0 0 18 18"
   version="1.1"
   id="svg23"
   sodipodi:docname="plyr-pause.svg"
   inkscape:version="1.1 (c68e22c387, 2021-05-23)"
   xmlns:inkscape="http://www.inkscape.org/namespaces/inkscape"
   xmlns:sodipodi="http://sodipodi.sourceforge.net/DTD/sodipodi-0.dtd"
   xmlns="http://www.w3.org/2000/svg"
   xmlns:svg="http://www.w3.org/2000/svg">
  <defs
     id="defs27" />
  <sodipodi:namedview
     id="namedview25"
     pagecolor="#ffffff"
     bordercolor="#666666"
     borderopacity="1.0"
     inkscape:pageshadow="2"
     inkscape:pageopacity="0.0"
     inkscape:pagecheckerboard="0"
     showgrid="false"
     inkscape:zoom="28.166667"
     inkscape:cx="9"
     inkscape:cy="9"
     inkscape:window-width="1366"
     inkscape:window-height="715"
     inkscape:window-x="-8"
     inkscape:window-y="-8"
     inkscape:window-maximized="1"
     inkscape:current-layer="svg23" />
  <path
     d="M6,1 L3,1 C2.4,1 2,1.4 2,2 L2,16 C2,16.6 2.4,17 3,17 L6,17 C6.6,17 7,16.6 7,16 L7,2 C7,1.4 6.6,1 6,1 L6,1 Z"
     id="path19"
     style="fill:#ffffff" />
  <path
     d="M12,1 C11.4,1 11,1.4 11,2 L11,16 C11,16.6 11.4,17 12,17 L15,17 C15.6,17 16,16.6 16,16 L16,2 C16,1.4 15.6,1 15,1 L12,1 Z"
     id="path21"
     style="fill:#ffffff" />
</svg>
