<?xml version="1.0" encoding="UTF-8" standalone="no"?>
<svg
   width="18px"
   height="18px"
   viewBox="0 0 18 18"
   version="1.1"
   id="svg280"
   sodipodi:docname="plyr-airplay.svg"
   inkscape:version="1.1 (c68e22c387, 2021-05-23)"
   xmlns:inkscape="http://www.inkscape.org/namespaces/inkscape"
   xmlns:sodipodi="http://sodipodi.sourceforge.net/DTD/sodipodi-0.dtd"
   xmlns="http://www.w3.org/2000/svg"
   xmlns:svg="http://www.w3.org/2000/svg">
  <defs
     id="defs284" />
  <sodipodi:namedview
     id="namedview282"
     pagecolor="#ffffff"
     bordercolor="#666666"
     borderopacity="1.0"
     inkscape:pageshadow="2"
     inkscape:pageopacity="0.0"
     inkscape:pagecheckerboard="0"
     showgrid="false"
     inkscape:zoom="29.444444"
     inkscape:cx="8.9830189"
     inkscape:cy="9.0169811"
     inkscape:window-width="1366"
     inkscape:window-height="715"
     inkscape:window-x="-8"
     inkscape:window-y="-8"
     inkscape:window-maximized="1"
     inkscape:current-layer="svg280" />
  <g
     id="g278"
     style="fill:#ffffff">
    <path
       d="M16,1 L2,1 C1.447,1 1,1.447 1,2 L1,12 C1,12.553 1.447,13 2,13 L5,13 L5,11 L3,11 L3,3 L15,3 L15,11 L13,11 L13,13 L16,13 C16.553,13 17,12.553 17,12 L17,2 C17,1.447 16.553,1 16,1 L16,1 Z"
       id="path274"
       style="fill:#ffffff" />
    <polygon
       points="4 17 14 17 9 11"
       id="polygon276"
       style="fill:#ffffff" />
  </g>
</svg>
